<?xml version="1.0" encoding="utf-8"?>
<!-- Generator: Adobe Illustrator 24.1.3, SVG Export Plug-In . SVG Version: 6.00 Build 0)  -->
<svg version="1.1" xmlns="http://www.w3.org/2000/svg" xmlns:xlink="http://www.w3.org/1999/xlink" x="0px" y="0px"
	 viewBox="0 0 200 200" style="enable-background:new 0 0 200 200;" xml:space="preserve">
<style type="text/css">
	.st0{display:none;}
	.st1{display:inline;fill:none;stroke:#999999;stroke-width:0.25;stroke-miterlimit:10;}
	.st2{fill:#FFFFFF;stroke:#FFFFFF;stroke-width:0.25;stroke-miterlimit:10;}
	.st3{fill:none;stroke:#0000FF;stroke-width:0.25;stroke-miterlimit:10;}
	.st4{fill:none;stroke:#FFFF00;stroke-width:0.25;stroke-miterlimit:10;}
	.st5{fill:#CBD4D9;stroke:#CBD4D9;stroke-width:0.25;stroke-miterlimit:10;}
	.st6{fill:none;stroke:#39B54A;stroke-width:0.25;stroke-miterlimit:10;}
	.st7{fill:#FFFFFF;}
</style>
<g id="Capa_1">
</g>
<g id="Capa_2">
</g>
<g id="Capa_4">
</g>
<g id="Capa_5">
</g>
<g id="Capa_3">
</g>
<g id="Capa_6">
</g>
<g id="Capa_7">
</g>
<g id="Capa_8">
</g>
<g id="Capa_9">
</g>
<g id="Capa_10">
</g>
<g id="Capa_11" class="st0">
	<line class="st1" x1="99.55" y1="16.47" x2="99.55" y2="127.02"/>
	<line class="st1" x1="44.28" y1="71.74" x2="154.83" y2="71.74"/>
</g>
<g id="Capa_12">
	<path class="st2" d="M95.33,127.28c0.89-0.94,26.87-28.35,31.55-56.82c0.67-3.97,0.91-7.96,0.6-11.9c0-0.15-0.01-0.3-0.03-0.44
		c-0.4-4.61-4.27-8.22-8.98-8.22c-1.27,0-2.48,0.26-3.58,0.74c-0.02,0-0.03,0.01-0.03,0.02c-0.54,0.23-1.04,0.51-1.52,0.84
		c-0.01,0.01-0.03,0.02-0.04,0.02c-1.7,0.86-3.63,1.58-5.75,2.12c-2.98,0.78-6.32,1.21-9.85,1.21c-0.35,0-0.71,0-1.06-0.01
		c-0.35-0.01-0.69-0.02-1.04-0.04c-0.69-0.04-1.37-0.09-2.04-0.15c-0.68-0.06-1.34-0.14-1.99-0.25c-0.97-0.15-1.92-0.33-2.84-0.54
		c-0.3-0.07-0.61-0.14-0.91-0.22c-0.3-0.07-0.59-0.15-0.88-0.24c-0.28-0.07-0.56-0.16-0.83-0.25c-0.11-0.04-0.22-0.07-0.32-0.1
		c-0.26-0.09-0.51-0.18-0.76-0.27c-0.24-0.08-0.47-0.17-0.7-0.26c-0.03-0.02-0.07-0.03-0.11-0.05c-0.22-0.08-0.44-0.17-0.66-0.27
		c-0.24-0.1-0.47-0.2-0.7-0.31c-0.38-0.17-0.75-0.35-1.11-0.54c0.44,0.14,0.89,0.26,1.35,0.38c2.97,0.76,6.28,1.19,9.78,1.19
		c7.73,0,14.57-2.08,18.72-5.27c0,0,0-0.01,0.01-0.01c0.22-0.16,0.44-0.33,0.64-0.51c0.05-0.05,0.1-0.09,0.16-0.13
		c2.23-1.65,4.97-2.64,7.96-2.7c0.09-0.01,0.18-0.01,0.27-0.01c7.15,0,13.04,5.43,13.75,12.41c0.01,0.02,0.01,0.05,0.01,0.07
		c0.01,0.06,0.02,0.12,0.02,0.19C134.82,60.22,137.75,93.58,95.33,127.28z"/>
	<path class="st3" d="M107.47,31.11"/>
	<path class="st4" d="M95.33,127.28c-0.01,0.01-0.01,0.01-0.02,0.02"/>
	<path class="st5" d="M110.74,93.8c-0.04,0.27-0.1,0.57-0.18,0.92C110.65,94.42,110.71,94.12,110.74,93.8z"/>
	<path class="st4" d="M94.81,122.86v0.01c-0.03,0.05-0.05,0.09-0.06,0.11c0,0.01,0,0.01,0,0.01C94.74,123,94.74,123,94.74,123"/>
	<path class="st2" d="M99.67,88.56"/>
	<path class="st2" d="M110.74,93.8c-0.04,0.27-0.1,0.57-0.18,0.92c-0.03,0.14-0.06,0.27-0.1,0.41c-0.62,2.56-2.19,6.89-6.19,12.87
		c-6.15,9.2-8.96,14.02-9.46,14.86c0.72-1.44,6.82-13.64,9.61-21.74c1.01-2.92,1.59-5.31,1.33-6.47c0-3.36-2.72-6.09-6.09-6.09
		c-1.44,0-2.76,0.5-3.8,1.33c0,0-0.09,0.09-0.26,0.24c-0.13,0.1-0.24,0.21-0.34,0.32c-0.6,0.56-1.58,1.47-2.59,2.44
		c-0.53,0.49-1.07,1.01-1.57,1.49c-2.06,2-7.55,7.45-10.83,9.71c0,0,9.08-12.65,15.25-18.31v0.01c1.63-1.54,3.82-2.48,6.24-2.48
		c5.03,0,9.11,4.08,9.11,9.11C110.87,92.42,110.89,92.88,110.74,93.8z"/>
	<path class="st6" d="M70.88,47.98"/>
	<path class="st2" d="M69.41,54.37c-0.1,1.36,0.01,2.95,0.27,4.79c0.29,2.1,0.83,4.53,1.74,7.29c4.26,12.93,9.87,14.64,5.87,38.81
		c0,0,11.15-12.94,2.47-37.88c0,0-0.16-0.35-0.41-0.95c-0.16-0.4-0.36-0.9-0.58-1.49c-0.51-1.39-1.16-3.24-1.67-5.2
		c-0.31-1.2-0.57-2.44-0.73-3.64c-0.11-0.55-0.16-1.12-0.16-1.7c0-0.1,0-0.2,0.01-0.3c0.05-1.67,0.55-3.23,1.39-4.55
		c1.5-2.38,4.07-4.01,7.04-4.22c0.22-0.02,0.44-0.03,0.66-0.03c0.77,0,1.52,0.1,2.23,0.28c0.01,0,0.03,0,0.04,0.01
		c0.32,0.04,0.64,0.09,0.96,0.14c2.7,0.46,5.2,1.27,7.39,2.31c1.71,0.82,3.22,1.77,4.5,2.84c-1.43-3.77-5.26-7.5-10.51-9.98
		c-0.02-0.02-0.04-0.03-0.06-0.04c-1.91-1.07-4.12-1.68-6.47-1.68C83.39,39.18,70.55,38.97,69.41,54.37z"/>
	<path class="st4" d="M76.55,52.6"/>
	<g>
		<g>
			<path class="st7" d="M139.44,118.75c-7.42,7.95-17.4,13.54-28.15,15.91c-2.69,0.59-5.43,0.92-8.18,1.13
				c-2.75,0.19-5.51-0.01-8.27-0.1c-5.49-0.57-10.94-1.75-16.1-3.8c-5.12-2.12-9.98-4.91-14.33-8.38
				c-4.28-3.56-8.07-7.68-11.26-12.25c-3.1-4.64-5.46-9.73-7.17-15.04c-1.61-5.35-2.35-10.91-2.49-16.49
				c0.13-5.57,0.87-11.14,2.48-16.49c1.71-5.3,4.08-10.4,7.17-15.04c3.19-4.57,6.98-8.69,11.26-12.25c4.35-3.47,9.2-6.26,14.33-8.38
				c5.16-2.05,10.61-3.23,16.1-3.8c2.76-0.09,5.52-0.29,8.27-0.1c2.75,0.21,5.49,0.54,8.18,1.13c10.74,2.37,20.72,7.96,28.15,15.91
				c-3.96-3.72-8.41-6.88-13.21-9.35c-2.4-1.23-4.9-2.25-7.44-3.13c-2.55-0.86-5.16-1.5-7.79-1.99c-2.64-0.48-5.3-0.75-7.97-0.88
				c-2.68-0.12-5.34,0.15-8.01,0.3c-5.29,0.69-10.5,1.95-15.4,4.04c-4.85,2.17-9.42,4.94-13.54,8.28
				c-4.03,3.45-7.59,7.42-10.57,11.8c-2.88,4.44-5.13,9.27-6.72,14.31c-1.5,5.08-2.17,10.35-2.29,15.64
				c0.11,5.28,0.79,10.56,2.29,15.64c1.6,5.04,3.84,9.86,6.72,14.31c2.98,4.38,6.53,8.35,10.57,11.8c4.12,3.34,8.68,6.11,13.54,8.28
				c4.9,2.09,10.11,3.36,15.4,4.04c2.66,0.15,5.33,0.42,8.01,0.3c2.67-0.13,5.34-0.41,7.98-0.88c2.63-0.5,5.25-1.13,7.79-1.99
				c2.54-0.88,5.04-1.9,7.44-3.13C131.03,125.63,135.48,122.47,139.44,118.75z"/>
		</g>
	</g>
</g>
</svg>
